<?xml version="1.0" encoding="UTF-8" standalone="no"?>
<!-- Created with Inkscape (http://www.inkscape.org/) -->

<svg
   width="246.00024mm"
   height="246.00024mm"
   viewBox="0 0 246.00024 246.00024"
   version="1.1"
   id="svg5"
   sodipodi:docname="Moosgummi-Ring3.svg"
   inkscape:version="1.2.1 (1:1.2.1+202210291244+9c6d41e410)"
   xmlns:inkscape="http://www.inkscape.org/namespaces/inkscape"
   xmlns:sodipodi="http://sodipodi.sourceforge.net/DTD/sodipodi-0.dtd"
   xmlns="http://www.w3.org/2000/svg"
   xmlns:svg="http://www.w3.org/2000/svg">
  <sodipodi:namedview
     id="namedview7"
     pagecolor="#ffffff"
     bordercolor="#666666"
     borderopacity="1.0"
     inkscape:showpageshadow="2"
     inkscape:pageopacity="0.0"
     inkscape:pagecheckerboard="0"
     inkscape:deskcolor="#d1d1d1"
     inkscape:document-units="mm"
     showgrid="false"
     inkscape:zoom="0.52850974"
     inkscape:cx="387.88311"
     inkscape:cy="597.90762"
     inkscape:window-width="1920"
     inkscape:window-height="1014"
     inkscape:window-x="1920"
     inkscape:window-y="0"
     inkscape:window-maximized="1"
     inkscape:current-layer="layer1" />
  <defs
     id="defs2" />
  <g
     inkscape:label="Ebene 1"
     inkscape:groupmode="layer"
     id="layer1"
     transform="translate(11.000121,-32.49986)">
    <path
       id="path234"
       style="fill:none;stroke:#000000;stroke-width:0.3;stroke-linecap:square;paint-order:stroke fill markers"
       d="M 112.00026,32.64986 A 122.85,122.85001 0 0 0 -10.850121,155.50024 122.85,122.85001 0 0 0 112.00026,278.35011 122.85,122.85001 0 0 0 234.85012,155.50024 122.85,122.85001 0 0 0 112.00026,32.64986 Z" />
    <path
       id="path236"
       style="fill:none;stroke:#000000;stroke-width:0.3;stroke-linecap:square;paint-order:stroke fill markers"
       d="M 231.85001,155.49998 A 119.85001,119.85 0 0 1 112,275.34998 119.85001,119.85 0 0 1 -7.85001,155.49998 119.85001,119.85 0 0 1 112,35.649987 119.85001,119.85 0 0 1 231.85001,155.49998 Z" />
  </g>
</svg>
